<?xml version="1.0" standalone="no"?>
<!DOCTYPE svg PUBLIC "-//W3C//DTD SVG 20010904//EN"
 "http://www.w3.org/TR/2001/REC-SVG-20010904/DTD/svg10.dtd">
<svg version="1.0" xmlns="http://www.w3.org/2000/svg"
 width="1516.000000pt" height="440.000000pt" viewBox="0 0 1516.000000 440.000000"
 preserveAspectRatio="xMidYMid meet">

<g transform="translate(0.000000,440.000000) scale(0.100000,-0.100000)"
fill="#000000" stroke="none">
<path d="M1207 3193 c-4 -3 -7 -118 -7 -255 l0 -248 280 0 280 0 2 -742 3
-743 302 -3 303 -2 2 742 3 743 278 3 277 2 0 255 0 255 -858 0 c-472 0 -862
-3 -865 -7z"/>
<path d="M3030 2200 l0 -1000 835 0 835 0 0 255 0 255 -530 0 -530 0 0 125 0
125 530 0 530 0 0 240 0 240 -530 0 -530 0 0 125 0 125 530 0 530 0 0 255 0
255 -835 0 -835 0 0 -1000z"/>
<path d="M4810 2201 l0 -1001 418 0 c671 1 808 17 1022 122 93 46 116 63 200
147 142 143 209 285 245 517 21 130 16 385 -10 499 -85 384 -298 611 -645 690
-65 15 -155 18 -652 22 l-578 5 0 -1001z m994 460 c124 -43 195 -105 246 -213
38 -80 54 -181 47 -293 -14 -204 -91 -337 -235 -402 -65 -30 -153 -42 -319
-43 l-123 0 0 492 0 491 163 -6 c126 -5 175 -10 221 -26z"/>
<path d="M6806 3178 c4 -7 95 -140 201 -296 106 -155 193 -285 193 -288 0 -3
-76 -116 -168 -252 -93 -136 -187 -275 -211 -309 l-42 -63 223 0 223 0 88 150
c49 83 92 150 95 150 4 -1 47 -68 96 -150 l90 -150 223 0 223 0 -83 123 c-256
376 -337 496 -337 502 0 4 44 71 97 149 53 77 143 210 200 294 l104 152 -223
0 -223 0 -72 -128 c-40 -70 -79 -136 -86 -146 -11 -16 -22 -1 -92 128 l-80
146 -223 0 c-176 0 -222 -3 -216 -12z"/>
</g>
</svg>
